<svg width="20" height="20" viewBox="0 0 20 20" fill="none" xmlns="http://www.w3.org/2000/svg">
<path d="M16.5378 4.09924L8.88276 11.7542C9.10977 12.0792 9.30276 12.4302 9.45776 12.8022L11.3678 17.4012L16.5378 4.09924ZM7.53577 10.4072L15.1918 2.75124L1.88877 7.92124L6.48777 9.83224C6.85692 9.98533 7.20832 10.1781 7.53577 10.4072ZM19.1538 2.54524L13.1268 18.0512C12.7468 19.0312 11.6498 19.5342 10.6778 19.1752C10.441 19.0877 10.2249 18.9522 10.043 18.7772C9.86108 18.6022 9.71733 18.3915 9.62076 18.1582L7.71077 13.5592C7.33912 12.663 6.627 11.9509 5.73077 11.5792L1.13077 9.66924C0.176765 9.27224 -0.259235 8.16924 0.158765 7.20324C0.261258 6.9672 0.409456 6.75378 0.594815 6.57529C0.780175 6.39679 0.99903 6.25675 1.23877 6.16324L16.7448 0.134237C17.0817 -0.00154053 17.4511 -0.0352354 17.807 0.0373454C18.163 0.109926 18.4897 0.285578 18.7466 0.542439C19.0034 0.7993 19.1791 1.12603 19.2517 1.48196C19.3242 1.83789 19.2905 2.20731 19.1548 2.54424L19.1538 2.54524Z" fill="#444444"/>
</svg>
